<svg xmlns="http://www.w3.org/2000/svg" viewBox="0 0 1440 760" role="img" aria-labelledby="diagram-title diagram-description">
  <title id="diagram-title">The Nightly Build article architecture</title>
  <desc id="diagram-description">Main enters the orchestrator, which fans work out into isolated worktrees. Each worktree runs a task, voice, research, writing, editing, and validation loop. Passing work opens a library pull request and publishes to GitHub Pages after green CI. CI failures return to the orchestrator.</desc>
  <defs>
    <marker id="arrow" markerWidth="10" markerHeight="10" refX="8" refY="5" orient="auto">
      <path d="M0 0L10 5L0 10Z" fill="#71858d"/>
    </marker>
    <marker id="repair-arrow" markerWidth="10" markerHeight="10" refX="8" refY="5" orient="auto">
      <path d="M0 0L10 5L0 10Z" fill="#c98612"/>
    </marker>
    <marker id="ci-arrow" markerWidth="10" markerHeight="10" refX="8" refY="5" orient="auto">
      <path d="M0 0L10 5L0 10Z" fill="#c16e61"/>
    </marker>
    <style>
      .edge { fill: none; stroke: #71858d; stroke-width: 2.4; marker-end: url(#arrow); }
      .leader { fill: none; stroke: #9cafb2; stroke-width: 2; stroke-dasharray: 6 7; }
      .repair { fill: none; stroke: #c98612; stroke-width: 2.2; stroke-dasharray: 7 6; marker-end: url(#repair-arrow); }
      .ci { fill: none; stroke: #c16e61; stroke-width: 2.3; stroke-dasharray: 8 6; marker-end: url(#ci-arrow); }
      .node-title { fill: #10212b; font: 700 16px -apple-system, BlinkMacSystemFont, "Segoe UI", sans-serif; }
      .node-copy { fill: #61727b; font: 13px -apple-system, BlinkMacSystemFont, "Segoe UI", sans-serif; }
      .artifact { fill: #795b95; font: 12px ui-monospace, SFMono-Regular, Menlo, monospace; }
      .panel-title { fill: #10212b; font: 700 18px -apple-system, BlinkMacSystemFont, "Segoe UI", sans-serif; letter-spacing: .6px; }
      .panel-copy { fill: #61727b; font: 14px -apple-system, BlinkMacSystemFont, "Segoe UI", sans-serif; }
      .label { fill: #5c7078; font: 12px -apple-system, BlinkMacSystemFont, "Segoe UI", sans-serif; }
      .repair-label { fill: #9a680f; font: 12px -apple-system, BlinkMacSystemFont, "Segoe UI", sans-serif; }
      .ci-label { fill: #a35349; font: 12px -apple-system, BlinkMacSystemFont, "Segoe UI", sans-serif; }
    </style>
  </defs>

  <rect width="1440" height="760" fill="#fbfaf7"/>

  <rect x="80" y="300" width="1280" height="420" rx="24" fill="#fffdf8" stroke="#afbfbd" stroke-width="2" stroke-dasharray="9 7"/>
  <text class="panel-title" x="115" y="342">INSIDE EACH ISOLATED WORKTREE</text>
  <text class="panel-copy" x="115" y="367">The same desk loop runs in parallel for every commissioned task.</text>

  <path class="edge" d="M210 170H270"/>
  <path class="edge" d="M490 170H580"/>
  <path class="leader" d="M690 215V300"/>
  <circle cx="690" cy="300" r="5" fill="#9cafb2"/>
  <path class="edge" d="M1260 170H1320"/>
  <path class="edge" d="M1240 425V225"/>

  <path class="ci" d="M1180 115V72Q1180 58 1166 58H394Q380 58 380 72V115"/>
  <rect x="706" y="43" width="150" height="28" rx="14" fill="#fbfaf7"/>
  <text class="ci-label" x="781" y="61" text-anchor="middle">CI failure · repair run</text>

  <rect x="50" y="130" width="160" height="80" rx="14" fill="#e8f2f4" stroke="#76a3ab" stroke-width="2"/>
  <text class="node-title" x="75" y="164">main</text>
  <text class="node-copy" x="75" y="187">engine + press/</text>

  <rect x="270" y="115" width="220" height="110" rx="14" fill="#fff3d7" stroke="#d49620" stroke-width="2"/>
  <text class="node-title" x="295" y="149">Orchestrator</text>
  <text class="node-copy" x="295" y="174">sync · select · provision</text>
  <text class="artifact" x="295" y="201">commission task.md</text>

  <rect x="592" y="115" width="220" height="100" rx="14" fill="#f7eed9" stroke="#d8b56a" stroke-width="1.5"/>
  <rect x="586" y="121" width="220" height="100" rx="14" fill="#fbf3df" stroke="#d8b56a" stroke-width="1.5"/>
  <rect x="580" y="127" width="220" height="100" rx="14" fill="#fff3d7" stroke="#d49620" stroke-width="2"/>
  <text class="node-title" x="605" y="161">Worktrees × N</text>
  <text class="node-copy" x="605" y="185">one isolated desk per article</text>
  <text class="artifact" x="605" y="207">one task.md each</text>

  <rect x="1020" y="115" width="240" height="110" rx="14" fill="#f1ebf7" stroke="#9a7ab6" stroke-width="2"/>
  <text class="node-title" x="1045" y="146">PR on library</text>
  <text class="node-copy" x="1045" y="170">article + record + assets</text>
  <line x1="1045" y1="183" x2="1235" y2="183" stroke="#cdbdd9"/>
  <text class="artifact" x="1045" y="204">desk artifacts included</text>

  <rect x="1320" y="130" width="100" height="80" rx="14" fill="#e8f2f4" stroke="#76a3ab" stroke-width="2"/>
  <text class="node-title" x="1370" y="163" text-anchor="middle">GitHub</text>
  <text class="node-title" x="1370" y="186" text-anchor="middle">Pages</text>

  <rect x="706" y="253" width="116" height="28" rx="14" fill="#fbfaf7"/>
  <text class="label" x="764" y="271" text-anchor="middle">expanded below</text>
  <rect x="1215" y="282" width="50" height="26" rx="13" fill="#fbfaf7"/>
  <text class="label" x="1240" y="299" text-anchor="middle">pass</text>

  <path class="edge" d="M260 475H305"/>
  <path class="edge" d="M470 475H515"/>
  <path class="edge" d="M705 475H750"/>
  <path class="edge" d="M925 475H970"/>
  <path class="edge" d="M1160 475H1205"/>

  <path class="repair" d="M660 425V400Q660 388 648 388H582Q570 388 570 400V425"/>
  <text class="repair-label" x="615" y="379" text-anchor="middle">bad citation</text>

  <path class="repair" d="M880 425V400Q880 388 868 388H807Q795 388 795 400V425"/>
  <text class="repair-label" x="838" y="379" text-anchor="middle">bad writing</text>

  <path class="repair" d="M1270 525V566Q1270 578 1258 578H1092Q1080 578 1080 566V525"/>
  <text class="repair-label" x="1175" y="563" text-anchor="middle">check fails</text>

  <path class="repair" d="M1040 525V603Q1040 615 1028 615H867Q855 615 855 603V525"/>
  <text class="repair-label" x="948" y="600" text-anchor="middle">rewrite</text>

  <path class="repair" d="M1000 525V640Q1000 652 988 652H632Q620 652 620 640V525"/>
  <text class="repair-label" x="810" y="637" text-anchor="middle">source gap</text>

  <rect x="95" y="425" width="165" height="100" rx="13" fill="#e8f2f4" stroke="#76a3ab" stroke-width="2"/>
  <text class="node-title" x="115" y="451">Task</text>
  <text class="node-copy" x="115" y="473" style="font-size:12px">created by orchestrator</text>
  <text class="node-copy" x="115" y="493" style="font-size:12px">scope + constraints</text>
  <text class="artifact" x="115" y="514">task.md</text>

  <rect x="305" y="425" width="165" height="100" rx="13" fill="#fff3d7" stroke="#d49620" stroke-width="2"/>
  <text class="node-title" x="325" y="451">Voice</text>
  <text class="node-copy" x="325" y="473" style="font-size:12px">study relevant writers</text>
  <text class="node-copy" x="325" y="493" style="font-size:12px">for voice + style</text>
  <text class="artifact" x="325" y="514">voice.md</text>

  <rect x="515" y="425" width="190" height="100" rx="13" fill="#fff3d7" stroke="#d49620" stroke-width="2"/>
  <text class="node-title" x="535" y="451">Research</text>
  <text class="node-copy" x="535" y="473" style="font-size:12px">read + verify sources</text>
  <text class="node-copy" x="535" y="493" style="font-size:12px">log claims + citations</text>
  <text class="artifact" x="535" y="514">research.md</text>

  <rect x="750" y="425" width="175" height="100" rx="13" fill="#fff3d7" stroke="#d49620" stroke-width="2"/>
  <text class="node-title" x="770" y="451">Write</text>
  <text class="node-copy" x="770" y="473" style="font-size:12px">draft from research</text>
  <text class="node-copy" x="770" y="493" style="font-size:12px">run proof + revise</text>
  <text class="artifact" x="770" y="514">article.html</text>

  <rect x="970" y="425" width="190" height="100" rx="13" fill="#fff3d7" stroke="#d49620" stroke-width="2"/>
  <text class="node-title" x="990" y="451">Edit</text>
  <text class="node-copy" x="990" y="473" style="font-size:12px">tighten prose + punctuation</text>
  <text class="node-copy" x="990" y="493" style="font-size:12px">check citations + clarity</text>
  <text class="artifact" x="990" y="514">requested-changes.md</text>

  <rect x="1205" y="425" width="140" height="100" rx="13" fill="#e9f5ec" stroke="#6f9a78" stroke-width="2"/>
  <text class="node-title" x="1275" y="451" text-anchor="middle">Validate</text>
  <text class="node-copy" x="1275" y="473" text-anchor="middle" style="font-size:12px">proof + render</text>
  <text class="node-copy" x="1275" y="493" text-anchor="middle" style="font-size:12px">gate the handoff</text>
  <text class="artifact" x="1275" y="514" text-anchor="middle">check.py</text>

  <text class="panel-copy" x="115" y="695">Failures stay inside the desk. Only a CI failure returns to the orchestrator.</text>
</svg>
